<svg width="24" height="24" viewBox="0 0 24 24" fill="none" xmlns="http://www.w3.org/2000/svg">
    <mask id="mask0_38669_353" style="mask-type:luminance" maskUnits="userSpaceOnUse" x="2" y="1" width="21" height="22">
        <path fill-rule="evenodd" clip-rule="evenodd" d="M2 1H22.4998V22.505H2V1Z" fill="white"/>
    </mask>
    <g mask="url(#mask0_38669_353)">
        <path fill-rule="evenodd" clip-rule="evenodd" d="M13.7168 15.2913C14.9208 15.2913 15.9008 16.2643 15.9008 17.4603V20.5362C15.9008 20.7932 16.1068 20.9992 16.3708 21.0052H18.2768C19.7788 21.0052 20.9998 19.7993 20.9998 18.3173V9.59325C20.9928 9.08325 20.7498 8.60325 20.3328 8.28425L13.7398 3.02625C12.8548 2.32525 11.6168 2.32525 10.7288 3.02825L4.18079 8.28225C3.74779 8.61125 3.50479 9.09125 3.49979 9.61025V18.3173C3.49979 19.7993 4.72079 21.0052 6.22279 21.0052H8.14679C8.41779 21.0052 8.63779 20.7902 8.63779 20.5262C8.63779 20.4682 8.64479 20.4102 8.65679 20.3552V17.4603C8.65679 16.2713 9.63079 15.2993 10.8258 15.2913H13.7168ZM18.2768 22.5053H16.3528C15.2508 22.4793 14.4008 21.6143 14.4008 20.5363V17.4603C14.4008 17.0913 14.0938 16.7913 13.7168 16.7913H10.8308C10.4618 16.7933 10.1568 17.0943 10.1568 17.4603V20.5263C10.1568 20.6013 10.1468 20.6733 10.1258 20.7413C10.0178 21.7313 9.17179 22.5053 8.14679 22.5053H6.22279C3.89379 22.5053 1.99979 20.6262 1.99979 18.3172V9.60325C2.00979 8.60925 2.46779 7.69925 3.25879 7.10025L9.79379 1.85525C11.2328 0.71525 13.2378 0.71525 14.6738 1.85325L21.2558 7.10325C22.0288 7.69225 22.4868 8.60025 22.4998 9.58225V18.3172C22.4998 20.6262 20.6058 22.5053 18.2768 22.5053Z" fill="#757C8E"/>
    </g>
</svg>
