<svg width="25" height="24" viewBox="0 0 25 24" fill="none" xmlns="http://www.w3.org/2000/svg">
    <path d="M17.25 2H7.25C4.49 2 2.25 4.23 2.25 6.98V12.96V13.96C2.25 16.71 4.49 18.94 7.25 18.94H8.75C9.02 18.94 9.38 19.12 9.55 19.34L11.05 21.33C11.71 22.21 12.79 22.21 13.45 21.33L14.95 19.34C15.14 19.09 15.44 18.94 15.75 18.94H17.25C20.01 18.94 22.25 16.71 22.25 13.96V6.98C22.25 4.23 20.01 2 17.25 2ZM13.25 13.75H7.25C6.84 13.75 6.5 13.41 6.5 13C6.5 12.59 6.84 12.25 7.25 12.25H13.25C13.66 12.25 14 12.59 14 13C14 13.41 13.66 13.75 13.25 13.75ZM17.25 8.75H7.25C6.84 8.75 6.5 8.41 6.5 8C6.5 7.59 6.84 7.25 7.25 7.25H17.25C17.66 7.25 18 7.59 18 8C18 8.41 17.66 8.75 17.25 8.75Z" fill="#458CFF"/>
</svg>
